<svg width="1045" height="1045" xmlns="http://www.w3.org/2000/svg" xmlns:xlink="http://www.w3.org/1999/xlink" xml:space="preserve" overflow="hidden"><g transform="translate(-1939 -976)"><path d="M2653.66 1151.18 2707.53 1165.62C2716.38 1167.99 2721.63 1177.08 2719.26 1185.92L2704.06 1242.63C2693.72 1281.23 2654.04 1304.14 2615.44 1293.79L2561.57 1279.36C2552.72 1276.99 2547.48 1267.9 2549.85 1259.05L2565.04 1202.34C2575.38 1163.74 2615.06 1140.84 2653.66 1151.18Z" stroke="#FFFFFF" stroke-width="13.75" stroke-miterlimit="8" fill="#9C8412" fill-rule="evenodd"/><path d="M2588.77 1113.77 2549.81 1259.17C2547.4 1268.19 2538.12 1273.55 2529.09 1271.13L2474.13 1256.4C2434.75 1245.85 2411.38 1205.37 2421.93 1165.99L2460.89 1020.59C2463.3 1011.57 2472.58 1006.21 2481.61 1008.63L2536.57 1023.36C2575.95 1033.91 2599.32 1074.39 2588.77 1113.77Z" stroke="#FFFFFF" stroke-width="13.75" stroke-miterlimit="8" fill="#9C8412" fill-rule="evenodd"/><path d="M2221.75 1495.01C2268.68 1319.88 2416.73 1207.39 2552.43 1243.75 2688.13 1280.11 2760.09 1451.55 2713.17 1626.68 2666.24 1801.81 2518.2 1914.3 2382.5 1877.94 2246.8 1841.58 2174.83 1670.13 2221.75 1495.01Z" stroke="#FFFFFF" stroke-width="13.75" stroke-miterlimit="8" fill="#2C5234" fill-rule="evenodd"/></g></svg>